<mxfile host="app.diagrams.net" agent="Mozilla/5.0 (Windows NT 10.0; Win64; x64; rv:135.0) Gecko/20100101 Firefox/135.0" version="26.0.11">
  <diagram name="Page-1" id="e7e014a7-5840-1c2e-5031-d8a46d1fe8dd">
    <mxGraphModel dx="1247" dy="649" grid="1" gridSize="10" guides="1" tooltips="1" connect="1" arrows="1" fold="1" page="1" pageScale="1" pageWidth="1169" pageHeight="826" background="none" math="0" shadow="0">
      <root>
        <mxCell id="0" />
        <mxCell id="1" parent="0" />
        <mxCell id="22" value="" style="edgeStyle=elbowEdgeStyle;elbow=vertical;align=left;verticalAlign=bottom;endArrow=open;endSize=8;exitX=0.5;exitY=0;endFill=1;rounded=0;exitDx=0;exitDy=0;entryX=0.5;entryY=1;entryDx=0;entryDy=0;" parent="1" source="rSYbZqv3cKX7zQpIJlmM-34" target="_Sj6H3lR2v7R7_RWuAPX-43" edge="1">
          <mxGeometry x="-1" relative="1" as="geometry">
            <mxPoint x="295" y="70" as="targetPoint" />
            <Array as="points" />
            <mxPoint x="440" y="199.9999999999999" as="sourcePoint" />
          </mxGeometry>
        </mxCell>
        <mxCell id="_Sj6H3lR2v7R7_RWuAPX-50" value="true" style="edgeLabel;html=1;align=center;verticalAlign=middle;resizable=0;points=[];" parent="22" vertex="1" connectable="0">
          <mxGeometry x="0.2669" relative="1" as="geometry">
            <mxPoint y="9" as="offset" />
          </mxGeometry>
        </mxCell>
        <mxCell id="rSYbZqv3cKX7zQpIJlmM-36" style="edgeStyle=orthogonalEdgeStyle;rounded=0;orthogonalLoop=1;jettySize=auto;html=1;exitX=1;exitY=0.5;exitDx=0;exitDy=0;strokeColor=none;" parent="1" source="_Sj6H3lR2v7R7_RWuAPX-70" target="rSYbZqv3cKX7zQpIJlmM-35" edge="1">
          <mxGeometry relative="1" as="geometry" />
        </mxCell>
        <mxCell id="_Sj6H3lR2v7R7_RWuAPX-70" value="" style="ellipse;shape=startState;fillColor=#000000;strokeColor=#000000;" parent="1" vertex="1">
          <mxGeometry x="100" y="130" width="30" height="30" as="geometry" />
        </mxCell>
        <mxCell id="_Sj6H3lR2v7R7_RWuAPX-43" value="" style="ellipse;shape=endState;fillColor=#000000;strokeColor=#000000;" parent="1" vertex="1">
          <mxGeometry x="278" y="56" width="30" height="30" as="geometry" />
        </mxCell>
        <mxCell id="rSYbZqv3cKX7zQpIJlmM-34" value="?checkEnd" style="rhombus;fontSize=8;" parent="1" vertex="1">
          <mxGeometry x="253" y="125" width="80" height="40" as="geometry" />
        </mxCell>
        <mxCell id="rSYbZqv3cKX7zQpIJlmM-35" value="spawn" style="fontSize=9;verticalAlign=middle;horizontal=1;rounded=1;" parent="1" vertex="1">
          <mxGeometry x="160" y="130" width="50" height="30" as="geometry" />
        </mxCell>
        <mxCell id="rSYbZqv3cKX7zQpIJlmM-39" value="" style="edgeStyle=elbowEdgeStyle;elbow=horizontal;align=left;verticalAlign=bottom;endArrow=open;endSize=8;exitX=1;exitY=0.5;endFill=1;rounded=0;exitDx=0;exitDy=0;entryX=0;entryY=0.5;entryDx=0;entryDy=0;" parent="1" source="_Sj6H3lR2v7R7_RWuAPX-70" target="rSYbZqv3cKX7zQpIJlmM-35" edge="1">
          <mxGeometry x="-1" relative="1" as="geometry">
            <mxPoint x="60" y="-30" as="targetPoint" />
            <Array as="points" />
            <mxPoint x="155" y="69.99999999999989" as="sourcePoint" />
          </mxGeometry>
        </mxCell>
        <mxCell id="rSYbZqv3cKX7zQpIJlmM-43" value="" style="edgeStyle=elbowEdgeStyle;elbow=horizontal;align=left;verticalAlign=bottom;endArrow=open;endSize=8;exitX=1;exitY=0.5;endFill=1;rounded=0;exitDx=0;exitDy=0;entryX=0;entryY=0.5;entryDx=0;entryDy=0;" parent="1" source="rSYbZqv3cKX7zQpIJlmM-35" target="rSYbZqv3cKX7zQpIJlmM-34" edge="1">
          <mxGeometry x="-1" relative="1" as="geometry">
            <mxPoint x="260" y="144.62" as="targetPoint" />
            <Array as="points" />
            <mxPoint x="220" y="144.62" as="sourcePoint" />
          </mxGeometry>
        </mxCell>
        <mxCell id="rSYbZqv3cKX7zQpIJlmM-45" value="" style="edgeStyle=elbowEdgeStyle;elbow=horizontal;align=left;verticalAlign=bottom;endArrow=open;endSize=8;exitX=0.5;exitY=0;endFill=1;rounded=0;exitDx=0;exitDy=0;entryX=0;entryY=0.5;entryDx=0;entryDy=0;" parent="1" target="rSYbZqv3cKX7zQpIJlmM-47" edge="1">
          <mxGeometry x="-1" relative="1" as="geometry">
            <mxPoint x="335" y="90" as="targetPoint" />
            <Array as="points" />
            <mxPoint x="335" y="145" as="sourcePoint" />
          </mxGeometry>
        </mxCell>
        <mxCell id="rSYbZqv3cKX7zQpIJlmM-46" value="false" style="edgeLabel;html=1;align=center;verticalAlign=middle;resizable=0;points=[];" parent="rSYbZqv3cKX7zQpIJlmM-45" vertex="1" connectable="0">
          <mxGeometry x="0.2669" relative="1" as="geometry">
            <mxPoint x="-9" y="-1" as="offset" />
          </mxGeometry>
        </mxCell>
        <mxCell id="rSYbZqv3cKX7zQpIJlmM-47" value="?checkHP" style="rhombus;fontSize=8;" parent="1" vertex="1">
          <mxGeometry x="378" y="125" width="80" height="40" as="geometry" />
        </mxCell>
        <mxCell id="rSYbZqv3cKX7zQpIJlmM-50" value="" style="edgeStyle=elbowEdgeStyle;elbow=vertical;align=left;verticalAlign=bottom;endArrow=open;endSize=8;exitX=0.5;exitY=0;endFill=1;rounded=0;exitDx=0;exitDy=0;entryX=0.5;entryY=0;entryDx=0;entryDy=0;" parent="1" source="rSYbZqv3cKX7zQpIJlmM-47" target="rSYbZqv3cKX7zQpIJlmM-35" edge="1">
          <mxGeometry x="-1" relative="1" as="geometry">
            <mxPoint x="418" y="86" as="targetPoint" />
            <Array as="points">
              <mxPoint x="300" y="40" />
            </Array>
            <mxPoint x="418" y="125" as="sourcePoint" />
          </mxGeometry>
        </mxCell>
        <mxCell id="rSYbZqv3cKX7zQpIJlmM-51" value="true" style="edgeLabel;html=1;align=center;verticalAlign=middle;resizable=0;points=[];" parent="rSYbZqv3cKX7zQpIJlmM-50" vertex="1" connectable="0">
          <mxGeometry x="0.2669" relative="1" as="geometry">
            <mxPoint x="179" y="70" as="offset" />
          </mxGeometry>
        </mxCell>
        <mxCell id="rSYbZqv3cKX7zQpIJlmM-66" value="" style="edgeStyle=elbowEdgeStyle;elbow=horizontal;align=left;verticalAlign=bottom;endArrow=open;endSize=8;exitX=1;exitY=0.5;endFill=1;rounded=0;exitDx=0;exitDy=0;entryX=0;entryY=0.5;entryDx=0;entryDy=0;" parent="1" source="rSYbZqv3cKX7zQpIJlmM-47" target="rSYbZqv3cKX7zQpIJlmM-68" edge="1">
          <mxGeometry x="-1" relative="1" as="geometry">
            <mxPoint x="460" y="90" as="targetPoint" />
            <Array as="points" />
            <mxPoint x="460" y="145" as="sourcePoint" />
          </mxGeometry>
        </mxCell>
        <mxCell id="rSYbZqv3cKX7zQpIJlmM-67" value="false" style="edgeLabel;html=1;align=center;verticalAlign=middle;resizable=0;points=[];" parent="rSYbZqv3cKX7zQpIJlmM-66" vertex="1" connectable="0">
          <mxGeometry x="0.2669" relative="1" as="geometry">
            <mxPoint x="-9" y="-1" as="offset" />
          </mxGeometry>
        </mxCell>
        <mxCell id="rSYbZqv3cKX7zQpIJlmM-68" value="?checkStrEffect" style="rhombus;fontSize=8;" parent="1" vertex="1">
          <mxGeometry x="503" y="125" width="80" height="40" as="geometry" />
        </mxCell>
        <mxCell id="rSYbZqv3cKX7zQpIJlmM-69" value="" style="edgeStyle=elbowEdgeStyle;elbow=vertical;align=left;verticalAlign=bottom;endArrow=open;endSize=8;exitX=0.5;exitY=0;endFill=1;rounded=0;exitDx=0;exitDy=0;entryX=0.5;entryY=0;entryDx=0;entryDy=0;" parent="1" source="rSYbZqv3cKX7zQpIJlmM-68" target="rSYbZqv3cKX7zQpIJlmM-35" edge="1">
          <mxGeometry x="-1" relative="1" as="geometry">
            <mxPoint x="290" y="120" as="targetPoint" />
            <Array as="points">
              <mxPoint x="425" y="40" />
            </Array>
            <mxPoint x="543" y="125" as="sourcePoint" />
          </mxGeometry>
        </mxCell>
        <mxCell id="rSYbZqv3cKX7zQpIJlmM-70" value="true" style="edgeLabel;html=1;align=center;verticalAlign=middle;resizable=0;points=[];" parent="rSYbZqv3cKX7zQpIJlmM-69" vertex="1" connectable="0">
          <mxGeometry x="0.2669" relative="1" as="geometry">
            <mxPoint x="259" y="70" as="offset" />
          </mxGeometry>
        </mxCell>
        <mxCell id="rSYbZqv3cKX7zQpIJlmM-75" value="" style="edgeStyle=elbowEdgeStyle;elbow=horizontal;align=left;verticalAlign=bottom;endArrow=open;endSize=8;exitX=1;exitY=0.5;endFill=1;rounded=0;exitDx=0;exitDy=0;entryX=0;entryY=0.5;entryDx=0;entryDy=0;" parent="1" source="rSYbZqv3cKX7zQpIJlmM-68" target="rSYbZqv3cKX7zQpIJlmM-77" edge="1">
          <mxGeometry x="-1" relative="1" as="geometry">
            <mxPoint x="585" y="90" as="targetPoint" />
            <Array as="points" />
            <mxPoint x="583" y="145" as="sourcePoint" />
          </mxGeometry>
        </mxCell>
        <mxCell id="rSYbZqv3cKX7zQpIJlmM-76" value="false" style="edgeLabel;html=1;align=center;verticalAlign=middle;resizable=0;points=[];" parent="rSYbZqv3cKX7zQpIJlmM-75" vertex="1" connectable="0">
          <mxGeometry x="0.2669" relative="1" as="geometry">
            <mxPoint x="-9" y="-1" as="offset" />
          </mxGeometry>
        </mxCell>
        <mxCell id="rSYbZqv3cKX7zQpIJlmM-77" value="?ally&#xa;Princess&#xa;InRange" style="rhombus;fontSize=8;" parent="1" vertex="1">
          <mxGeometry x="628" y="125" width="80" height="40" as="geometry" />
        </mxCell>
        <mxCell id="rSYbZqv3cKX7zQpIJlmM-78" value="" style="edgeStyle=elbowEdgeStyle;elbow=vertical;align=left;verticalAlign=bottom;endArrow=open;endSize=8;exitX=0.5;exitY=0;endFill=1;rounded=0;exitDx=0;exitDy=0;entryX=0.5;entryY=1;entryDx=0;entryDy=0;" parent="1" source="rSYbZqv3cKX7zQpIJlmM-77" target="rSYbZqv3cKX7zQpIJlmM-115" edge="1">
          <mxGeometry x="-1" relative="1" as="geometry">
            <mxPoint x="668" y="80" as="targetPoint" />
            <Array as="points" />
            <mxPoint x="668" y="125" as="sourcePoint" />
          </mxGeometry>
        </mxCell>
        <mxCell id="rSYbZqv3cKX7zQpIJlmM-79" value="true" style="edgeLabel;html=1;align=center;verticalAlign=middle;resizable=0;points=[];" parent="rSYbZqv3cKX7zQpIJlmM-78" vertex="1" connectable="0">
          <mxGeometry x="0.2669" relative="1" as="geometry">
            <mxPoint y="14" as="offset" />
          </mxGeometry>
        </mxCell>
        <mxCell id="rSYbZqv3cKX7zQpIJlmM-81" value="" style="edgeStyle=elbowEdgeStyle;elbow=horizontal;align=left;verticalAlign=bottom;endArrow=open;endSize=8;exitX=0.5;exitY=1;endFill=1;rounded=0;exitDx=0;exitDy=0;entryX=0.5;entryY=0;entryDx=0;entryDy=0;" parent="1" source="rSYbZqv3cKX7zQpIJlmM-77" target="rSYbZqv3cKX7zQpIJlmM-83" edge="1">
          <mxGeometry x="-1" relative="1" as="geometry">
            <mxPoint x="710" y="90" as="targetPoint" />
            <Array as="points">
              <mxPoint x="668" y="190" />
            </Array>
            <mxPoint x="708" y="145" as="sourcePoint" />
          </mxGeometry>
        </mxCell>
        <mxCell id="rSYbZqv3cKX7zQpIJlmM-82" value="false" style="edgeLabel;html=1;align=center;verticalAlign=middle;resizable=0;points=[];" parent="rSYbZqv3cKX7zQpIJlmM-81" vertex="1" connectable="0">
          <mxGeometry x="0.2669" relative="1" as="geometry">
            <mxPoint y="-13" as="offset" />
          </mxGeometry>
        </mxCell>
        <mxCell id="rSYbZqv3cKX7zQpIJlmM-83" value="?enemy&#xa;Princess&#xa;InRange" style="rhombus;fontSize=8;" parent="1" vertex="1">
          <mxGeometry x="628" y="271.33" width="80" height="40" as="geometry" />
        </mxCell>
        <mxCell id="rSYbZqv3cKX7zQpIJlmM-84" value="" style="edgeStyle=elbowEdgeStyle;elbow=vertical;align=left;verticalAlign=bottom;endArrow=open;endSize=8;exitX=0.5;exitY=1;endFill=1;rounded=0;exitDx=0;exitDy=0;entryX=0.5;entryY=0;entryDx=0;entryDy=0;" parent="1" source="rSYbZqv3cKX7zQpIJlmM-83" target="rSYbZqv3cKX7zQpIJlmM-86" edge="1">
          <mxGeometry x="-1" relative="1" as="geometry">
            <mxPoint x="668" y="226.32999999999998" as="targetPoint" />
            <Array as="points" />
            <mxPoint x="668" y="271.33" as="sourcePoint" />
          </mxGeometry>
        </mxCell>
        <mxCell id="rSYbZqv3cKX7zQpIJlmM-85" value="true" style="edgeLabel;html=1;align=center;verticalAlign=middle;resizable=0;points=[];" parent="rSYbZqv3cKX7zQpIJlmM-84" vertex="1" connectable="0">
          <mxGeometry x="0.2669" relative="1" as="geometry">
            <mxPoint y="-17" as="offset" />
          </mxGeometry>
        </mxCell>
        <mxCell id="rSYbZqv3cKX7zQpIJlmM-86" value="&lt;font style=&quot;font-size: 8px;&quot;&gt;pickUp&lt;/font&gt;" style="rounded=0;whiteSpace=wrap;html=1;" parent="1" vertex="1">
          <mxGeometry x="646.5" y="356.33" width="43" height="15" as="geometry" />
        </mxCell>
        <mxCell id="rSYbZqv3cKX7zQpIJlmM-109" value="" style="edgeStyle=elbowEdgeStyle;elbow=horizontal;align=left;verticalAlign=bottom;endArrow=open;endSize=8;endFill=1;rounded=0;exitX=0;exitY=0.5;exitDx=0;exitDy=0;entryX=1;entryY=0.5;entryDx=0;entryDy=0;" parent="1" source="rSYbZqv3cKX7zQpIJlmM-83" target="rSYbZqv3cKX7zQpIJlmM-130" edge="1">
          <mxGeometry x="-1" relative="1" as="geometry">
            <mxPoint x="583" y="291.3299999999999" as="targetPoint" />
            <Array as="points" />
            <mxPoint x="630" y="321.33" as="sourcePoint" />
          </mxGeometry>
        </mxCell>
        <mxCell id="rSYbZqv3cKX7zQpIJlmM-110" value="false" style="edgeLabel;html=1;align=center;verticalAlign=middle;resizable=0;points=[];" parent="rSYbZqv3cKX7zQpIJlmM-109" vertex="1" connectable="0">
          <mxGeometry x="0.2669" relative="1" as="geometry">
            <mxPoint x="10" y="-1" as="offset" />
          </mxGeometry>
        </mxCell>
        <mxCell id="rSYbZqv3cKX7zQpIJlmM-112" value="" style="edgeStyle=elbowEdgeStyle;elbow=vertical;align=left;verticalAlign=bottom;endArrow=open;endSize=8;exitX=0.5;exitY=1;endFill=1;rounded=0;exitDx=0;exitDy=0;entryX=0.5;entryY=0;entryDx=0;entryDy=0;" parent="1" target="rSYbZqv3cKX7zQpIJlmM-114" edge="1">
          <mxGeometry x="-1" relative="1" as="geometry">
            <mxPoint x="543" y="226.32999999999998" as="targetPoint" />
            <Array as="points" />
            <mxPoint x="543" y="311.3299999999999" as="sourcePoint" />
          </mxGeometry>
        </mxCell>
        <mxCell id="rSYbZqv3cKX7zQpIJlmM-115" value="&lt;font style=&quot;font-size: 8px;&quot;&gt;pickUp&lt;/font&gt;" style="rounded=0;whiteSpace=wrap;html=1;" parent="1" vertex="1">
          <mxGeometry x="646.5" y="63.5" width="43" height="15" as="geometry" />
        </mxCell>
        <mxCell id="rSYbZqv3cKX7zQpIJlmM-130" value="?allyInRange" style="rhombus;fontSize=8;" parent="1" vertex="1">
          <mxGeometry x="503" y="271.33" width="80" height="40" as="geometry" />
        </mxCell>
        <mxCell id="rSYbZqv3cKX7zQpIJlmM-131" value="" style="edgeStyle=elbowEdgeStyle;elbow=vertical;align=left;verticalAlign=bottom;endArrow=open;endSize=8;exitX=0.5;exitY=1;endFill=1;rounded=0;exitDx=0;exitDy=0;entryX=0.5;entryY=0;entryDx=0;entryDy=0;" parent="1" source="rSYbZqv3cKX7zQpIJlmM-130" target="rSYbZqv3cKX7zQpIJlmM-133" edge="1">
          <mxGeometry x="-1" relative="1" as="geometry">
            <mxPoint x="543" y="226.32999999999998" as="targetPoint" />
            <Array as="points" />
            <mxPoint x="543" y="311.33" as="sourcePoint" />
          </mxGeometry>
        </mxCell>
        <mxCell id="rSYbZqv3cKX7zQpIJlmM-132" value="true" style="edgeLabel;html=1;align=center;verticalAlign=middle;resizable=0;points=[];" parent="rSYbZqv3cKX7zQpIJlmM-131" vertex="1" connectable="0">
          <mxGeometry x="0.2669" relative="1" as="geometry">
            <mxPoint y="-17" as="offset" />
          </mxGeometry>
        </mxCell>
        <mxCell id="rSYbZqv3cKX7zQpIJlmM-133" value="&lt;font style=&quot;font-size: 8px;&quot;&gt;heal&lt;/font&gt;" style="rounded=0;whiteSpace=wrap;html=1;" parent="1" vertex="1">
          <mxGeometry x="524" y="356.33" width="38" height="15" as="geometry" />
        </mxCell>
        <mxCell id="rSYbZqv3cKX7zQpIJlmM-134" value="" style="edgeStyle=elbowEdgeStyle;elbow=horizontal;align=left;verticalAlign=bottom;endArrow=open;endSize=8;endFill=1;rounded=0;entryX=1;entryY=0.5;entryDx=0;entryDy=0;exitX=0;exitY=0.5;exitDx=0;exitDy=0;" parent="1" source="rSYbZqv3cKX7zQpIJlmM-130" target="rSYbZqv3cKX7zQpIJlmM-136" edge="1">
          <mxGeometry x="-1" relative="1" as="geometry">
            <mxPoint x="455" y="291.33" as="targetPoint" />
            <Array as="points" />
            <mxPoint x="503" y="291.33" as="sourcePoint" />
          </mxGeometry>
        </mxCell>
        <mxCell id="rSYbZqv3cKX7zQpIJlmM-135" value="false" style="edgeLabel;html=1;align=center;verticalAlign=middle;resizable=0;points=[];" parent="rSYbZqv3cKX7zQpIJlmM-134" vertex="1" connectable="0">
          <mxGeometry x="0.2669" relative="1" as="geometry">
            <mxPoint x="10" y="-1" as="offset" />
          </mxGeometry>
        </mxCell>
        <mxCell id="rSYbZqv3cKX7zQpIJlmM-136" value="?enemyInRange" style="rhombus;fontSize=8;" parent="1" vertex="1">
          <mxGeometry x="378" y="271.33" width="80" height="40" as="geometry" />
        </mxCell>
        <mxCell id="rSYbZqv3cKX7zQpIJlmM-137" value="" style="edgeStyle=elbowEdgeStyle;elbow=vertical;align=left;verticalAlign=bottom;endArrow=open;endSize=8;exitX=0.5;exitY=1;endFill=1;rounded=0;exitDx=0;exitDy=0;entryX=0.5;entryY=0;entryDx=0;entryDy=0;" parent="1" source="rSYbZqv3cKX7zQpIJlmM-136" target="rSYbZqv3cKX7zQpIJlmM-139" edge="1">
          <mxGeometry x="-1" relative="1" as="geometry">
            <mxPoint x="418" y="226.32999999999998" as="targetPoint" />
            <Array as="points" />
            <mxPoint x="418" y="311.33" as="sourcePoint" />
          </mxGeometry>
        </mxCell>
        <mxCell id="rSYbZqv3cKX7zQpIJlmM-138" value="true" style="edgeLabel;html=1;align=center;verticalAlign=middle;resizable=0;points=[];" parent="rSYbZqv3cKX7zQpIJlmM-137" vertex="1" connectable="0">
          <mxGeometry x="0.2669" relative="1" as="geometry">
            <mxPoint y="-17" as="offset" />
          </mxGeometry>
        </mxCell>
        <mxCell id="rSYbZqv3cKX7zQpIJlmM-139" value="&lt;font style=&quot;font-size: 8px;&quot;&gt;attack&lt;/font&gt;" style="rounded=0;whiteSpace=wrap;html=1;" parent="1" vertex="1">
          <mxGeometry x="399" y="356.33" width="38" height="15" as="geometry" />
        </mxCell>
        <mxCell id="rSYbZqv3cKX7zQpIJlmM-140" value="move" style="fontSize=9;verticalAlign=middle;horizontal=1;rounded=1;" parent="1" vertex="1">
          <mxGeometry x="268" y="200" width="50" height="30" as="geometry" />
        </mxCell>
        <mxCell id="rSYbZqv3cKX7zQpIJlmM-148" value="" style="edgeStyle=elbowEdgeStyle;elbow=horizontal;align=left;verticalAlign=bottom;endArrow=open;endSize=8;exitX=0.5;exitY=0;endFill=1;rounded=0;exitDx=0;exitDy=0;entryX=0.5;entryY=1;entryDx=0;entryDy=0;" parent="1" source="rSYbZqv3cKX7zQpIJlmM-140" target="rSYbZqv3cKX7zQpIJlmM-34" edge="1">
          <mxGeometry x="-1" relative="1" as="geometry">
            <mxPoint x="296" y="190" as="targetPoint" />
            <Array as="points" />
            <mxPoint x="253" y="190" as="sourcePoint" />
          </mxGeometry>
        </mxCell>
        <mxCell id="rSYbZqv3cKX7zQpIJlmM-153" value="" style="edgeStyle=elbowEdgeStyle;elbow=horizontal;align=left;verticalAlign=bottom;endArrow=open;endSize=8;endFill=1;rounded=0;entryX=1;entryY=0.5;entryDx=0;entryDy=0;exitX=0;exitY=0.5;exitDx=0;exitDy=0;" parent="1" target="rSYbZqv3cKX7zQpIJlmM-155" edge="1">
          <mxGeometry x="-1" relative="1" as="geometry">
            <mxPoint x="330" y="291.33" as="targetPoint" />
            <Array as="points" />
            <mxPoint x="378" y="291" as="sourcePoint" />
          </mxGeometry>
        </mxCell>
        <mxCell id="rSYbZqv3cKX7zQpIJlmM-154" value="false" style="edgeLabel;html=1;align=center;verticalAlign=middle;resizable=0;points=[];" parent="rSYbZqv3cKX7zQpIJlmM-153" vertex="1" connectable="0">
          <mxGeometry x="0.2669" relative="1" as="geometry">
            <mxPoint x="10" y="-1" as="offset" />
          </mxGeometry>
        </mxCell>
        <mxCell id="rSYbZqv3cKX7zQpIJlmM-155" value="?enemyGate&#xa;InRange" style="rhombus;fontSize=8;" parent="1" vertex="1">
          <mxGeometry x="253" y="271.33" width="80" height="40" as="geometry" />
        </mxCell>
        <mxCell id="rSYbZqv3cKX7zQpIJlmM-156" value="" style="edgeStyle=elbowEdgeStyle;elbow=vertical;align=left;verticalAlign=bottom;endArrow=open;endSize=8;exitX=0.5;exitY=1;endFill=1;rounded=0;exitDx=0;exitDy=0;entryX=0.5;entryY=0;entryDx=0;entryDy=0;" parent="1" source="rSYbZqv3cKX7zQpIJlmM-155" target="rSYbZqv3cKX7zQpIJlmM-158" edge="1">
          <mxGeometry x="-1" relative="1" as="geometry">
            <mxPoint x="293" y="226.32999999999998" as="targetPoint" />
            <Array as="points" />
            <mxPoint x="293" y="311.33" as="sourcePoint" />
          </mxGeometry>
        </mxCell>
        <mxCell id="rSYbZqv3cKX7zQpIJlmM-157" value="true" style="edgeLabel;html=1;align=center;verticalAlign=middle;resizable=0;points=[];" parent="rSYbZqv3cKX7zQpIJlmM-156" vertex="1" connectable="0">
          <mxGeometry x="0.2669" relative="1" as="geometry">
            <mxPoint y="-17" as="offset" />
          </mxGeometry>
        </mxCell>
        <mxCell id="rSYbZqv3cKX7zQpIJlmM-158" value="&lt;font style=&quot;font-size: 8px;&quot;&gt;attack&lt;/font&gt;" style="rounded=0;whiteSpace=wrap;html=1;" parent="1" vertex="1">
          <mxGeometry x="274" y="356.33" width="38" height="15" as="geometry" />
        </mxCell>
        <mxCell id="rSYbZqv3cKX7zQpIJlmM-170" value="" style="edgeStyle=elbowEdgeStyle;elbow=horizontal;align=left;verticalAlign=bottom;endArrow=open;endSize=8;endFill=1;rounded=0;entryX=0.5;entryY=1;entryDx=0;entryDy=0;exitX=0.5;exitY=0;exitDx=0;exitDy=0;" parent="1" source="rSYbZqv3cKX7zQpIJlmM-155" target="rSYbZqv3cKX7zQpIJlmM-140" edge="1">
          <mxGeometry x="-1" relative="1" as="geometry">
            <mxPoint x="95" y="301" as="targetPoint" />
            <Array as="points">
              <mxPoint x="293" y="250" />
            </Array>
            <mxPoint x="138" y="301" as="sourcePoint" />
          </mxGeometry>
        </mxCell>
        <mxCell id="rSYbZqv3cKX7zQpIJlmM-171" value="false" style="edgeLabel;html=1;align=center;verticalAlign=middle;resizable=0;points=[];" parent="rSYbZqv3cKX7zQpIJlmM-170" vertex="1" connectable="0">
          <mxGeometry x="0.2669" relative="1" as="geometry">
            <mxPoint y="15" as="offset" />
          </mxGeometry>
        </mxCell>
      </root>
    </mxGraphModel>
  </diagram>
</mxfile>
